<?xml version="1.0" encoding="UTF-8" standalone="no"?><!DOCTYPE svg PUBLIC "-//W3C//DTD SVG 1.1//EN" "http://www.w3.org/Graphics/SVG/1.1/DTD/svg11.dtd"><svg width="100%" height="100%" viewBox="0 0 1280 800" version="1.1" xmlns="http://www.w3.org/2000/svg" xmlns:xlink="http://www.w3.org/1999/xlink" xml:space="preserve" style="fill-rule:evenodd;clip-rule:evenodd;"><g id="Poly.-Background"><clipPath id="_clip1"><rect x="1241.49" y="209" width="38.51" height="94"/></clipPath><g clip-path="url(#_clip1)"><path d="M1241.49,270l72,33l95,-293l-167,260Z" style="fill:#7d90bd;fill-rule:nonzero;stroke:#7d90bd;stroke-width:1.51px;"/></g><clipPath id="_clip2"><rect x="1197.49" y="495" width="82.51" height="217"/></clipPath><g clip-path="url(#_clip2)"><path d="M1293.49,470l-96,177l157,65l-61,-242Z" style="fill:#5f85b6;fill-rule:nonzero;stroke:#5f85b6;stroke-width:1.51px;"/></g><clipPath id="_clip3"><rect x="1121.49" y="0" width="158.51" height="270"/></clipPath><g clip-path="url(#_clip3)"><path d="M1093.49,-91l148,361l167,-260l-315,-101Z" style="fill:#8798c5;fill-rule:nonzero;stroke:#8798c5;stroke-width:1.51px;"/></g><clipPath id="_clip4"><rect x="1197.49" y="647" width="82.51" height="87"/></clipPath><g clip-path="url(#_clip4)"><path d="M1197.49,647l140,105l17,-40l-157,-65Z" style="fill:#547eb3;fill-rule:nonzero;stroke:#547eb3;stroke-width:1.51px;"/></g><clipPath id="_clip5"><rect x="1241.49" y="270" width="38.51" height="200"/></clipPath><g clip-path="url(#_clip5)"><path d="M1241.49,270l52,200l20,-167l-72,-33Z" style="fill:#768dbd;fill-rule:nonzero;stroke:#768dbd;stroke-width:1.51px;"/></g><clipPath id="_clip6"><rect x="1197.49" y="616" width="82.51" height="205"/></clipPath><g clip-path="url(#_clip6)"><path d="M1197.49,647l99,174l41,-69l-140,-105Z" style="fill:#507db3;fill-rule:nonzero;stroke:#507db3;stroke-width:1.51px;"/></g><clipPath id="_clip7"><rect x="913.49" y="0" width="335" height="270"/></clipPath><g clip-path="url(#_clip7)"><path d="M1093.49,-91l-180,263l328,98l-148,-361Z" style="fill:#889fcd;fill-rule:nonzero;stroke:#889fcd;stroke-width:1.51px;"/></g><clipPath id="_clip8"><rect x="1045.49" y="270" width="234.51" height="200"/></clipPath><g clip-path="url(#_clip8)"><path d="M1241.49,270l-196,59l248,141l-52,-200Z" style="fill:#7892c4;fill-rule:nonzero;stroke:#7892c4;stroke-width:1.51px;"/></g><clipPath id="_clip9"><rect x="906.494" y="0" width="138" height="172"/></clipPath><g clip-path="url(#_clip9)"><path d="M906.494,73l7,99l180,-263l-187,164l0,0Z" style="fill:#8ea7d3;fill-rule:nonzero;stroke:#8ea7d3;stroke-width:1.51px;"/></g><clipPath id="_clip10"><rect x="1071.49" y="470" width="208.51" height="177"/></clipPath><g clip-path="url(#_clip10)"><path d="M1071.49,634l126,13l96,-177l-222,164Z" style="fill:#648bbd;fill-rule:nonzero;stroke:#648bbd;stroke-width:1.51px;"/></g><clipPath id="_clip11"><rect x="1071.49" y="634" width="208.51" height="166"/></clipPath><g clip-path="url(#_clip11)"><path d="M1197.49,647l-126,-13l225,187l-99,-174Z" style="fill:#5785bb;fill-rule:nonzero;stroke:#5785bb;stroke-width:1.51px;"/></g><clipPath id="_clip12"><rect x="1045.49" y="634" width="251" height="166"/></clipPath><g clip-path="url(#_clip12)"><path d="M1053.49,610l-42,363l285,-152l-243,-211Z" style="fill:#4a82bb;fill-rule:nonzero;stroke:#4a82bb;stroke-width:1.51px;"/></g><clipPath id="_clip13"><rect x="1045.49" y="329" width="234.51" height="305"/></clipPath><g clip-path="url(#_clip13)"><path d="M1045.49,329l26,305l222,-164l-248,-141Z" style="fill:#6f91c3;fill-rule:nonzero;stroke:#6f91c3;stroke-width:1.51px;"/></g><path d="M913.494,172l132,157l196,-59l-328,-98l0,0Z" style="fill:#819ccb;fill-rule:nonzero;stroke:#819ccb;stroke-width:1.51px;"/><clipPath id="_clip14"><rect x="921.494" y="634" width="149.996" height="166"/></clipPath><g clip-path="url(#_clip14)"><path d="M921.494,800l134,0l16,-166l-150,229l0,-63Z" style="fill:#4b87bf;fill-rule:nonzero;stroke:#4b87bf;stroke-width:1.51px;"/></g><clipPath id="_clip15"><rect x="660.494" y="0" width="433" height="68"/></clipPath><g clip-path="url(#_clip15)"><path d="M518.494,-46l271,114l304,-159l-562,35l-13,10Z" style="fill:#96b2d9;fill-rule:nonzero;stroke:#96b2d9;stroke-width:1.51px;"/></g><path d="M1045.49,329l-350,101l376,204l-26,-305Z" style="fill:#749bcb;fill-rule:nonzero;stroke:#749bcb;stroke-width:1.51px;"/><path d="M695.494,430l7,211c120.646,-1.857 173.135,1.994 369,-7l-376,-204l0,0Z" style="fill:#6d9ecc;fill-rule:nonzero;stroke:#6d9ecc;stroke-width:1.52px;"/><clipPath id="_clip16"><rect x="789.494" y="0" width="248" height="73"/></clipPath><g clip-path="url(#_clip16)"><path d="M789.494,68l117,5l187,-164l-304,159l0,0Z" style="fill:#90aad5;fill-rule:nonzero;stroke:#90aad5;stroke-width:1.51px;"/></g><path d="M913.494,172l-218,258l350,-101l-132,-157l0,0Z" style="fill:#81a3d1;fill-rule:nonzero;stroke:#81a3d1;stroke-width:1.51px;"/><path d="M695.494,131l0,299l218,-258l-218,-41Z" style="fill:#88acd6;fill-rule:nonzero;stroke:#88acd6;stroke-width:1.51px;"/><clipPath id="_clip17"><rect x="702.494" y="638" width="182" height="162"/></clipPath><g clip-path="url(#_clip17)"><path d="M702.494,638l133,265l86,-40l-219,-225Z" style="fill:#5292c7;fill-rule:nonzero;stroke:#5292c7;stroke-width:1.51px;"/></g><path d="M906.494,73l-117,-5l124,104l-7,-99Z" style="fill:#8daad5;fill-rule:nonzero;stroke:#8daad5;stroke-width:1.51px;"/><path d="M789.494,68l-94,63l218,41l-124,-104Z" style="fill:#8eaed7;fill-rule:nonzero;stroke:#8eaed7;stroke-width:1.51px;"/><clipPath id="_clip18"><rect x="474.494" y="638" width="337.5" height="162"/></clipPath><g clip-path="url(#_clip18)"><path d="M702.494,638l-228,145l361,120l-133,-265Z" style="fill:#5a9acb;fill-rule:nonzero;stroke:#5a9acb;stroke-width:1.51px;"/></g><clipPath id="_clip19"><rect x="474.494" y="783" width="197" height="17"/></clipPath><g clip-path="url(#_clip19)"><path d="M474.494,783l140,242l221,-122l-361,-120Z" style="fill:#4d95c8;fill-rule:nonzero;stroke:#4d95c8;stroke-width:1.51px;"/></g><path d="M695.494,131l-174,62l174,237l0,-299Z" style="fill:#8cb2d9;fill-rule:nonzero;stroke:#8cb2d9;stroke-width:1.51px;"/><clipPath id="_clip20"><rect x="566.494" y="0" width="223" height="131"/></clipPath><g clip-path="url(#_clip20)"><path d="M500.494,-91l195,222l94,-63l-289,-159Z" style="fill:#96b7dc;fill-rule:nonzero;stroke:#96b7dc;stroke-width:1.51px;"/></g><path d="M695.494,430l-126,32l133,176l-7,-208Z" style="fill:#79a8d3;fill-rule:nonzero;stroke:#79a8d3;stroke-width:1.51px;"/><clipPath id="_clip21"><rect x="513.494" y="0" width="182" height="193"/></clipPath><g clip-path="url(#_clip21)"><path d="M531.494,-56l-10,249l174,-62l-164,-187Z" style="fill:#97badd;fill-rule:nonzero;stroke:#97badd;stroke-width:1.51px;"/></g><path d="M521.494,193l48,269l126,-32l-174,-237Z" style="fill:#87b0d8;fill-rule:nonzero;stroke:#87b0d8;stroke-width:1.51px;"/><path d="M569.494,462l-105,74l238,102l-133,-176Z" style="fill:#78abd3;fill-rule:nonzero;stroke:#78abd3;stroke-width:1.51px;"/><path d="M464.494,536l10,247l228,-145l-238,-102Z" style="fill:#6da8d1;fill-rule:nonzero;stroke:#6da8d1;stroke-width:1.51px;"/><clipPath id="_clip22"><rect x="0" y="0" width="531.494" height="75"/></clipPath><g clip-path="url(#_clip22)"><path d="M-136.506,-41l310,116l358,-131l-668,15l0,0Z" style="fill:#adcfe8;fill-rule:nonzero;stroke:#adcfe8;stroke-width:1.51px;"/></g><path d="M464.494,536l-6,241l16,6l-10,-247Z" style="fill:#6ba9d2;fill-rule:nonzero;stroke:#6ba9d2;stroke-width:1.51px;"/><path d="M521.494,193l-90,224l138,45l-48,-269Z" style="fill:#8ab5da;fill-rule:nonzero;stroke:#8ab5da;stroke-width:1.51px;"/><clipPath id="_clip23"><rect x="381.494" y="783" width="207" height="17"/></clipPath><g clip-path="url(#_clip23)"><path d="M474.494,783l-93,301l233,-59l-140,-242Z" style="fill:#4d99ca;fill-rule:nonzero;stroke:#4d99ca;stroke-width:1.51px;"/></g><clipPath id="_clip24"><rect x="173.494" y="0" width="269" height="84"/></clipPath><g clip-path="url(#_clip24)"><path d="M173.494,75l100,9l258,-140l-358,131l0,0Z" style="fill:#a5c8e4;fill-rule:nonzero;stroke:#a5c8e4;stroke-width:1.51px;"/></g><path d="M350.494,702l108,75l6,-241l-114,166Z" style="fill:#70acd4;fill-rule:nonzero;stroke:#70acd4;stroke-width:1.51px;"/><path d="M273.494,84l82,131l166,-22l-248,-109Z" style="fill:#9bc1e1;fill-rule:nonzero;stroke:#9bc1e1;stroke-width:1.51px;"/><path d="M355.494,215l76,202l90,-224l-166,22Z" style="fill:#92bbdd;fill-rule:nonzero;stroke:#92bbdd;stroke-width:1.51px;"/><clipPath id="_clip25"><rect x="273.494" y="0" width="258" height="193"/></clipPath><g clip-path="url(#_clip25)"><path d="M273.494,84l248,109l10,-249l-258,140Z" style="fill:#9dc1e1;fill-rule:nonzero;stroke:#9dc1e1;stroke-width:1.51px;"/></g><path d="M431.494,417l33,119l105,-74l-138,-45Z" style="fill:#81b2d8;fill-rule:nonzero;stroke:#81b2d8;stroke-width:1.51px;"/><clipPath id="_clip26"><rect x="395.494" y="777" width="79" height="23"/></clipPath><g clip-path="url(#_clip26)"><path d="M458.494,777l-77,307l93,-301l-16,-6Z" style="fill:#589fcd;fill-rule:nonzero;stroke:#589fcd;stroke-width:1.51px;"/></g><clipPath id="_clip27"><rect x="370.494" y="777" width="88" height="23"/></clipPath><g clip-path="url(#_clip27)"><path d="M226.494,986l155,98l77,-307l-232,209l0,0Z" style="fill:#579fcd;fill-rule:nonzero;stroke:#579fcd;stroke-width:1.51px;"/></g><clipPath id="_clip28"><rect x="299.494" y="702" width="159" height="98"/></clipPath><g clip-path="url(#_clip28)"><path d="M350.494,702l-124,284l232,-209l-108,-75Z" style="fill:#62a7d2;fill-rule:nonzero;stroke:#62a7d2;stroke-width:1.51px;"/></g><path d="M431.494,417l-196,224l229,-105l-33,-119Z" style="fill:#81b5d8;fill-rule:nonzero;stroke:#81b5d8;stroke-width:1.51px;"/><path d="M235.494,641l115,61l114,-166l-229,105l0,0Z" style="fill:#79b2d6;fill-rule:nonzero;stroke:#79b2d6;stroke-width:1.51px;"/><clipPath id="_clip29"><rect x="171.494" y="702" width="179" height="98"/></clipPath><g clip-path="url(#_clip29)"><path d="M181.494,752l45,234l124,-284l-169,50l0,0Z" style="fill:#69abd4;fill-rule:nonzero;stroke:#69abd4;stroke-width:1.51px;"/></g><path d="M355.494,215l-230,186l306,16l-76,-202Z" style="fill:#95bfe0;fill-rule:nonzero;stroke:#95bfe0;stroke-width:1.51px;"/><path d="M125.494,401l110,240l196,-224l-306,-16l0,0Z" style="fill:#8bbbdc;fill-rule:nonzero;stroke:#8bbbdc;stroke-width:1.51px;"/><path d="M105.494,290l20,111l230,-186l-250,75l0,0Z" style="fill:#9cc5e3;fill-rule:nonzero;stroke:#9cc5e3;stroke-width:1.51px;"/><path d="M273.494,84l-168,206l250,-75l-82,-131Z" style="fill:#a0c6e3;fill-rule:nonzero;stroke:#a0c6e3;stroke-width:1.51px;"/><path d="M235.494,641l-54,111l169,-50l-115,-61l0,0Z" style="fill:#76b2d7;fill-rule:nonzero;stroke:#76b2d7;stroke-width:1.51px;"/><clipPath id="_clip30"><rect x="126.494" y="752" width="100" height="48"/></clipPath><g clip-path="url(#_clip30)"><path d="M181.494,752l-142,227l187,7l-45,-234Z" style="fill:#66aad4;fill-rule:nonzero;stroke:#66aad4;stroke-width:1.51px;"/></g><path d="M173.494,75l-68,215l168,-206l-100,-9l0,0Z" style="fill:#a5cae5;fill-rule:nonzero;stroke:#a5cae5;stroke-width:1.51px;"/><clipPath id="_clip31"><rect x="0" y="591" width="235.494" height="161"/></clipPath><g clip-path="url(#_clip31)"><path d="M-96.506,575l278,177l54,-111l-332,-66Z" style="fill:#83badb;fill-rule:nonzero;stroke:#83badb;stroke-width:1.51px;"/></g><clipPath id="_clip32"><rect x="0" y="401" width="273.494" height="260"/></clipPath><g clip-path="url(#_clip32)"><path d="M125.494,401l-222,174l332,66l-110,-240Z" style="fill:#90c1df;fill-rule:nonzero;stroke:#90c1df;stroke-width:1.51px;"/></g><clipPath id="_clip33"><rect x="0" y="401" width="125.494" height="97"/></clipPath><g clip-path="url(#_clip33)"><path d="M-60.506,417l-36,158l222,-174l-186,16Z" style="fill:#9ec7e2;fill-rule:nonzero;stroke:#9ec7e2;stroke-width:1.51px;"/></g><clipPath id="_clip34"><rect x="81.494" y="752" width="100" height="48"/></clipPath><g clip-path="url(#_clip34)"><path d="M-41.506,920l81,59l142,-227l-223,168Z" style="fill:#6fafd6;fill-rule:nonzero;stroke:#6fafd6;stroke-width:1.51px;"/></g><clipPath id="_clip35"><rect x="0" y="75" width="173.494" height="232"/></clipPath><g clip-path="url(#_clip35)"><path d="M-54.506,307l160,-17l68,-215l-228,232Z" style="fill:#a8cce6;fill-rule:nonzero;stroke:#a8cce6;stroke-width:1.51px;"/></g><clipPath id="_clip36"><rect x="0" y="575" width="181.494" height="225"/></clipPath><g clip-path="url(#_clip36)"><path d="M-96.506,575l55,345l223,-168l-278,-177Z" style="fill:#80b9da;fill-rule:nonzero;stroke:#80b9da;stroke-width:1.51px;"/></g><clipPath id="_clip37"><rect x="0" y="0" width="173.494" height="307"/></clipPath><g clip-path="url(#_clip37)"><path d="M-136.506,-41l82,348l228,-232l-310,-116Z" style="fill:#b3d3e9;fill-rule:nonzero;stroke:#b3d3e9;stroke-width:1.51px;"/></g><clipPath id="_clip38"><rect x="0" y="288" width="125.494" height="113"/></clipPath><g clip-path="url(#_clip38)"><path d="M105.494,290l-160,17l180,94l-20,-111Z" style="fill:#a3c9e5;fill-rule:nonzero;stroke:#a3c9e5;stroke-width:1.51px;"/></g><clipPath id="_clip39"><rect x="0" y="333" width="125.494" height="84"/></clipPath><g clip-path="url(#_clip39)"><path d="M-54.506,307l-6,110l186,-16l-180,-94Z" style="fill:#a4cae5;fill-rule:nonzero;stroke:#a4cae5;stroke-width:1.51px;"/></g><clipPath id="_clip40"><rect x="702.494" y="634" width="363" height="166"/></clipPath><g clip-path="url(#_clip40)"><path d="M702.494,638l219,255l232.496,-317l-130.562,58.521l-320.934,3.479l0,0Z" style="fill:#5b92c6;fill-rule:nonzero;stroke:#5b92c6;stroke-width:1.51px;"/></g></g><rect id="Gradient.-Background" x="0" y="0" width="1280" height="800" style="fill:url(#_Linear41);"/><defs><linearGradient id="_Linear41" x1="0" y1="0" x2="1" y2="0" gradientUnits="userSpaceOnUse" gradientTransform="matrix(-1248,761.858,-761.858,-1248,1280,0)"><stop offset="0" style="stop-color:#5490cd;stop-opacity:0.329412"/><stop offset="0.49" style="stop-color:#5662c2;stop-opacity:0.729412"/><stop offset="1" style="stop-color:#5653bf;stop-opacity:0.854902"/></linearGradient></defs></svg>